<svg width="80" height="80" viewBox="0 0 80 80" fill="none" xmlns="http://www.w3.org/2000/svg">
<circle cx="40" cy="40" r="40" fill="white"/>
<path d="M29.948 55C29.948 56.656 28.606 58 26.948 58C25.29 58 23.948 56.656 23.948 55V27C23.948 25.694 24.794 24.538 26.038 24.14C27.288 23.744 28.642 24.2 29.396 25.266L62.95 72.674C73.234 65.418 80 53.47 80 40C80 18 62 0 40 0C18 0 0 18 0 40C0 62 18 80 40 80C46.384 80 52.412 78.446 57.78 75.756L29.948 36.432V55ZM49.948 25C49.948 23.344 51.29 22 52.948 22C54.606 22 55.948 23.344 55.948 25V52.68L49.948 44.226V25Z" fill="#212121"/>
</svg>
